<?xml version="1.0" standalone="no"?>
<!DOCTYPE svg PUBLIC "-//W3C//DTD SVG 20010904//EN"
 "http://www.w3.org/TR/2001/REC-SVG-20010904/DTD/svg10.dtd">
<svg version="1.0" xmlns="http://www.w3.org/2000/svg"
 width="2100.000000pt" height="1500.000000pt" viewBox="0 0 2100.000000 1500.000000"
 preserveAspectRatio="xMidYMid meet">
<metadata>
Created by potrace 1.16, written by Peter Selinger 2001-2019
</metadata>
<g transform="translate(0.000000,1500.000000) scale(0.100000,-0.100000)"
fill="#000000" stroke="none">
<path d="M4730 10833 c-219 -221 -377 -438 -535 -733 -219 -410 -400 -937
-479 -1395 -53 -309 -60 -391 -60 -720 l-1 -310 33 -154 c30 -143 31 -156 16
-164 -38 -21 -294 -219 -379 -292 -326 -282 -630 -671 -776 -992 -230 -505
-264 -1080 -89 -1504 74 -178 159 -306 300 -453 358 -371 926 -609 1620 -680
623 -64 1248 1 1727 180 182 68 501 241 556 302 25 28 180 458 299 832 67 210
238 791 238 808 0 6 -60 -37 -132 -95 -565 -453 -879 -632 -1242 -706 -101
-20 -139 -22 -411 -22 -306 1 -461 11 -688 45 -496 75 -830 218 -1048 448 -97
102 -155 198 -198 327 -103 311 -49 694 158 1130 59 124 173 329 196 354 11
11 26 3 90 -53 229 -200 676 -411 1000 -471 115 -22 166 -16 257 27 l74 35 78
169 c282 605 329 719 305 735 -7 5 -26 9 -40 9 -45 0 -188 30 -273 57 -503
158 -843 623 -937 1283 -18 126 -15 472 5 600 18 116 53 253 86 344 l22 59 71
-7 c609 -57 1311 -538 1962 -1345 l60 -74 8 59 c4 32 33 237 64 454 63 444 70
584 39 742 -56 289 -195 529 -448 774 -189 182 -376 304 -603 393 -217 86
-395 125 -709 156 l-59 5 -157 -157z"/>
<path d="M12905 10890 c-115 -24 -196 -72 -287 -169 -101 -108 -164 -229 -195
-374 -22 -107 -13 -348 17 -442 69 -217 225 -397 396 -455 321 -111 659 131
740 529 20 104 15 331 -11 426 -39 143 -139 298 -242 377 -126 95 -282 136
-418 108z"/>
<path d="M15275 10761 c-159 -53 -403 -133 -541 -177 l-251 -79 -7 -520 c-15
-1192 -27 -1833 -38 -2210 -7 -220 -13 -591 -13 -825 0 -402 1 -432 23 -554
56 -310 147 -523 299 -701 111 -131 290 -246 472 -306 l85 -27 51 82 c135 214
331 483 504 690 50 60 91 117 91 127 0 10 -20 32 -45 49 -64 44 -325 250 -410
323 -38 34 -73 64 -78 67 -9 7 20 698 108 2630 36 778 65 1441 65 1472 0 40
-4 58 -12 57 -7 0 -143 -44 -303 -98z"/>
<path d="M16699 8685 l-364 -384 -7 -93 c-12 -162 -28 -752 -28 -1048 0 -452
28 -778 85 -977 14 -48 50 -137 80 -198 174 -353 404 -478 885 -479 213 0 329
24 485 102 103 51 180 109 277 210 135 140 257 339 346 567 52 133 122 369
110 374 -6 2 -30 -19 -54 -47 -110 -126 -307 -247 -449 -277 -242 -51 -417 26
-627 275 -52 62 -150 202 -144 207 1 2 48 -2 104 -8 164 -19 469 14 632 68
157 51 563 274 581 318 4 11 15 99 24 195 9 96 28 254 41 350 14 96 28 245 31
330 5 136 3 166 -16 240 -58 237 -213 419 -424 501 -132 51 -230 66 -687 108
-239 22 -454 43 -476 45 l-41 5 -364 -384z m726 -440 c185 -49 323 -194 386
-405 19 -65 22 -105 26 -311 l5 -236 -83 -7 c-46 -3 -184 -9 -306 -13 l-223
-6 0 32 c0 33 65 812 76 909 5 49 7 52 33 52 15 0 53 -7 86 -15z"/>
<path d="M8972 9011 c-294 -378 -456 -581 -462 -581 -4 0 -9 138 -13 306 -3
168 -8 308 -11 311 -2 3 -101 -29 -218 -70 -301 -106 -488 -163 -779 -238
l-36 -9 -6 -762 c-6 -740 -15 -1129 -37 -1618 -13 -301 -38 -747 -45 -826 l-6
-62 90 19 c122 25 497 81 830 124 151 19 276 36 277 38 2 2 -6 463 -18 1024
l-21 1021 104 231 104 231 19 -22 c25 -31 88 -159 114 -233 96 -273 158 -671
192 -1245 6 -96 14 -415 17 -708 3 -293 9 -531 12 -530 170 80 480 169 957
273 20 4 21 14 29 147 4 79 9 533 10 1009 l3 866 82 253 83 253 29 -34 c16
-19 60 -81 99 -137 223 -330 279 -615 266 -1357 -3 -192 -11 -435 -16 -540 -6
-104 -15 -287 -21 -405 -6 -118 -18 -300 -26 -403 -9 -104 -14 -190 -12 -193
5 -4 219 148 365 259 199 153 361 294 531 463 l173 173 -7 38 c-18 92 -9 625
16 933 29 366 36 1026 12 1160 -45 250 -105 388 -224 515 -198 212 -487 333
-888 370 l-65 6 -106 -133 c-125 -157 -220 -284 -316 -425 -66 -96 -83 -111
-83 -75 0 43 -76 168 -146 242 -151 158 -371 270 -706 360 l-109 29 -37 -48z"/>
<path d="M13465 8968 c-405 -231 -883 -433 -1228 -517 l-112 -28 -43 -248
c-35 -199 -41 -250 -30 -256 23 -14 120 -24 228 -23 88 1 119 6 192 30 l87 30
6 -46 c3 -25 7 -425 7 -890 2 -798 -6 -1148 -32 -1475 -4 -60 -8 -111 -7 -112
10 -9 1120 200 1147 217 8 5 6 117 -9 411 -43 829 -53 1277 -53 2152 1 460 -2
837 -6 836 -4 0 -70 -37 -147 -81z"/>
</g>
</svg>
